{"title":"Becoming Human documentary 2DVDrip English Klam","uid":7074949,"size":2835296552,"categoryP":"video","categoryS":"movies","magnet":"?xt=urn:btih:40756736c14cc88a1460cb90bbbce9209fde1455&amp;dn=Becoming+Human+documentary+2DVDrip+English+Klam&amp;tr=udp%3A%2F%2Ftracker.openbittorrent.com%3A80&amp;tr=udp%3A%2F%2Fopen.demonii.com%3A1337&amp;tr=udp%3A%2F%2Ftracker.coppersurfer.tk%3A6969&amp;tr=udp%3A%2F%2Fexodus.desync.com%3A6969","seeders":1,"leechers":4,"uploader":"Klambake","files":-1,"time":1330803228,"description":"Documentaire 3 afleveringen\n156 minuten\nDeze prestigieuze driedelige docuserie laat zien waar de mens vandaan komt, welke weg de mens heeft afgelegd en waarom wij de enige mensensoort op aarde zijn. De serie maakt gebruik van de meest recente wetenschappelijke inzichten, moderne forensische technieken en de nieuwste computeranimaties. Hierdoor ontstaat een bijzonder en zeer inzichtelijk beeld van het menselijk verleden en evolutie.\n\nDocumantairy 3 parts\nWhere did we come from? What makes us human? An explosion of recent discoveries sheds light on these questions, and NOVA's comprehensive, three-part special, &quot;Becoming Human,&quot; examines what the latest scientific research reveals about our hominid relatives.\n\n------------------------ Dutch Friends ------------------------\n---------------------------------------------------------------\n- Bezoek ook eens mijn vrienden op: &lt;a href=&quot; http://www.Film-Test.nl&quot; rel=&quot;nofollow&quot; target=&quot;_NEW&quot;&gt; http://www.Film-Test.nl&lt;/a&gt; --\n----- voor mijn Nederlandse Sync. ondertitels ---- en meer ----\n------- http://www.Film-Test.nl ---- voor Films en meer -------\n---------------------------------------------------------------\n\nGeneral:\n\nComplete name                    : Becoming HumanBirth of Humanity.avi\nFormat                           : AVI\nFormat/Info                      : Audio Video Interleave\nFile size                        : 899 MiB\nDuration                         : 51mn 35s\nOverall bit rate                 : 2 435 Kbps\n\nVideo:\n\nFormat                           : MPEG-4 Visual\nFormat profile                   : Simple@L3\nFormat settings, BVOP            : No\nFormat settings, QPel            : No\nFormat settings, GMC             : No warppoints\nFormat settings, Matrix          : Default (H.263)\nCodec ID                         : XVID\nCodec ID/Hint                    : XviD\nDuration                         : 51mn 35s\nBit rate                         : 2 201 Kbps\nWidth                            : 652 pixels\nHeight                           : 352 pixels\nDisplay aspect ratio             : 1.852\nFrame rate                       : 25.000 fps\nColor space                      : YUV\nChroma subsampling               : 4:2:0\nBit depth                        : 8 bits\nScan type                        : Progressive\nCompression mode                 : Lossy\nBits/(Pixel*Frame)               : 0.384\nStream size                      : 812 MiB (90%)\nWriting library                  : XviD 1.1.2 (UTC 2006-11-01)\n\nAudio:\n\nFormat                           : AC-3\nFormat/Info                      : Audio Coding 3\nMode extension                   : CM (complete main)\nCodec ID                         : 2000\nDuration                         : 51mn 35s\nBit rate mode                    : Constant\nBit rate                         : 224 Kbps\nChannel(s)                       : 2 channels\nChannel positions                : Front: L R\nSampling rate                    : 48.0 KHz\nBit depth                        : 16 bits\nCompression mode                 : Lossy\nStream size                      : 82.7 MiB (9%)\nAlignment                        : Aligned on interleaves\nInterleave, duration             : 32 ms (0.80 video frame)\n\n","torrent":{"xt":"urn:btih:40756736c14cc88a1460cb90bbbce9209fde1455","amp;dn":"Becoming+Human+documentary+2DVDrip+English+Klam","amp;tr":["udp%3A%2F%2Ftracker.openbittorrent.com%3A80","udp%3A%2F%2Fopen.demonii.com%3A1337","udp%3A%2F%2Ftracker.coppersurfer.tk%3A6969","udp%3A%2F%2Fexodus.desync.com%3A6969"],"infoHash":"40756736c14cc88a1460cb90bbbce9209fde1455","infoHashBuffer":{"type":"Buffer","data":[64,117,103,54,193,76,200,138,20,96,203,144,187,188,233,32,159,222,20,85]},"announce":[],"urlList":[]}}